{
	"asset":{
		"generator":"Khronos glTF Blender I/O v4.0.44",
		"version":"2.0"
	},
	"scene":0,
	"scenes":[
		{
			"name":"Scene",
			"nodes":[
				0
			]
		}
	],
	"nodes":[
		{
			"mesh":0,
			"name":"characterMedium",
			"scale":[
				0.4062672257423401,
				0.42846450209617615,
				0.4983648657798767
			]
		}
	],
	"materials":[
		{
			"doubleSided":true,
			"name":"Material",
			"pbrMetallicRoughness":{
				"baseColorTexture":{
					"index":0
				},
				"metallicFactor":0,
				"roughnessFactor":0.5681818127632141
			}
		}
	],
	"meshes":[
		{
			"name":"characterMedium",
			"primitives":[
				{
					"attributes":{
						"COLOR_0":0,
						"POSITION":1,
						"NORMAL":2,
						"TEXCOORD_0":3
					},
					"indices":4,
					"material":0
				}
			]
		}
	],
	"textures":[
		{
			"sampler":0,
			"source":0
		}
	],
	"images":[
		{
			"mimeType":"image/png",
			"name":"tttexture",
			"uri":"tttexture.png"
		}
	],
	"accessors":[
		{
			"bufferView":0,
			"componentType":5123,
			"count":1029,
			"normalized":true,
			"type":"VEC4"
		},
		{
			"bufferView":1,
			"componentType":5126,
			"count":1029,
			"max":[
				1.1237876415252686,
				4.116121768951416,
				1.7454276084899902
			],
			"min":[
				-1.337646484375,
				-0.0849260538816452,
				-0.2611343562602997
			],
			"type":"VEC3"
		},
		{
			"bufferView":2,
			"componentType":5126,
			"count":1029,
			"type":"VEC3"
		},
		{
			"bufferView":3,
			"componentType":5126,
			"count":1029,
			"type":"VEC2"
		},
		{
			"bufferView":4,
			"componentType":5123,
			"count":4812,
			"type":"SCALAR"
		}
	],
	"bufferViews":[
		{
			"buffer":0,
			"byteLength":8232,
			"byteOffset":0,
			"target":34962
		},
		{
			"buffer":0,
			"byteLength":12348,
			"byteOffset":8232,
			"target":34962
		},
		{
			"buffer":0,
			"byteLength":12348,
			"byteOffset":20580,
			"target":34962
		},
		{
			"buffer":0,
			"byteLength":8232,
			"byteOffset":32928,
			"target":34962
		},
		{
			"buffer":0,
			"byteLength":9624,
			"byteOffset":41160,
			"target":34963
		}
	],
	"samplers":[
		{
			"magFilter":9728,
			"minFilter":9984
		}
	],
	"buffers":[
		{
			"byteLength":50784,
			"uri":"ayudador1.bin"
		}
	]
}
